<svg width="32" height="32" viewBox="0 0 32 32" fill="none" xmlns="http://www.w3.org/2000/svg">
<path d="M12.3621 8.36977C12.3621 5.88003 10.3437 3.86171 7.85388 3.86174C5.36408 3.86177 3.3457 5.88013 3.3457 8.36987C3.3457 10.8596 5.36408 12.8779 7.85388 12.8779C10.3437 12.8778 12.3621 10.8595 12.3621 8.36977Z" stroke="#2D2D2D" stroke-width="1.6" stroke-linecap="round" stroke-linejoin="round"/>
<path d="M28.65 8.37836C28.65 5.88859 26.6317 3.87028 24.1419 3.87034C21.6521 3.87041 19.6338 5.88882 19.6338 8.37859C19.6338 10.8684 21.6521 12.8867 24.1419 12.8866C26.6317 12.8865 28.65 10.8681 28.65 8.37836Z" stroke="#2D2D2D" stroke-width="1.6" stroke-linecap="round" stroke-linejoin="round"/>
<path d="M12.363 23.6276C12.363 21.1378 10.3447 19.1195 7.85486 19.1196C5.36506 19.1196 3.34668 21.1379 3.34668 23.6277C3.34668 26.1174 5.36506 28.1357 7.85486 28.1357C10.3447 28.1357 12.363 26.1173 12.363 23.6276Z" stroke="#2D2D2D" stroke-width="1.6" stroke-linecap="round" stroke-linejoin="round"/>
<path fill-rule="evenodd" clip-rule="evenodd" d="M8.4123 7.5793H19.7056C19.6592 7.83878 19.635 8.10595 19.635 8.37878C19.635 8.65184 19.6592 8.91923 19.7058 9.17891H8.4123C7.97048 9.17891 7.6125 8.82093 7.6125 8.3791C7.6125 7.93727 7.97048 7.5793 8.4123 7.5793ZM21.5728 12.0829C21.1317 11.7762 20.748 11.3928 20.441 10.9519L10.9971 20.395C11.3856 20.7729 11.7062 21.2202 11.9388 21.7168L21.5728 12.0829ZM12.2914 22.8264C12.338 23.0861 12.3622 23.3536 12.3622 23.6268C12.3622 23.8995 12.338 24.1666 12.2916 24.426H24.1447C24.5866 24.426 24.9445 24.068 24.9445 23.6262C24.9444 23.1845 24.5865 22.8264 24.1447 22.8264H12.2914Z" fill="#2D2D2D"/>
<path d="M24.147 28.1383C26.6368 28.1383 28.6551 26.12 28.655 23.6302C28.655 21.1404 26.6366 19.1221 24.1468 19.1221C21.657 19.1221 19.6387 21.1404 19.6388 23.6302C19.6389 26.12 21.6573 28.1383 24.147 28.1383Z" stroke="#2D2D2D" stroke-width="1.6" stroke-linecap="round" stroke-linejoin="round"/>
</svg>
