<svg width="20" height="20" viewBox="0 0 20 20" fill="none" xmlns="http://www.w3.org/2000/svg">
<path d="M3.2002 15.8003H16.7998V13.5005H18.2002V16.5005C18.1999 16.8869 17.8864 17.2007 17.5 17.2007H2.5C2.11356 17.2007 1.80007 16.8869 1.7998 16.5005V13.5005H3.2002V15.8003ZM10.7002 11.2476L13.9365 8.01123L14.9268 9.00146L10 13.9272L5.07422 9.00146L6.06348 8.01221L9.2998 11.2476V2.15771H10.7002V11.2476Z" fill="#2D2D2D"/>
<path d="M3.2002 15.8003H16.7998V13.5005H18.2002V16.5005C18.1999 16.8869 17.8864 17.2007 17.5 17.2007H2.5C2.11356 17.2007 1.80007 16.8869 1.7998 16.5005V13.5005H3.2002V15.8003ZM10.7002 11.2476L13.9365 8.01123L14.9268 9.00146L10 13.9272L5.07422 9.00146L6.06348 8.01221L9.2998 11.2476V2.15771H10.7002V11.2476Z" fill="black" fill-opacity="0.2"/>
<path d="M3.2002 15.8003H16.7998V13.5005H18.2002V16.5005C18.1999 16.8869 17.8864 17.2007 17.5 17.2007H2.5C2.11356 17.2007 1.80007 16.8869 1.7998 16.5005V13.5005H3.2002V15.8003ZM10.7002 11.2476L13.9365 8.01123L14.9268 9.00146L10 13.9272L5.07422 9.00146L6.06348 8.01221L9.2998 11.2476V2.15771H10.7002V11.2476Z" fill="black" fill-opacity="0.2"/>
</svg>
