<svg width="20" height="20" viewBox="0 0 20 20" fill="none" xmlns="http://www.w3.org/2000/svg">
<path fill-rule="evenodd" clip-rule="evenodd" d="M6.5 1.6665C6.86819 1.6665 7.16667 1.96498 7.16667 2.33317V4.16654L12.832 4.16661V2.33317C12.832 1.96498 13.1305 1.6665 13.4987 1.6665C13.8669 1.6665 14.1654 1.96498 14.1654 2.33317V4.16662L15.9994 4.16665C16.8278 4.16666 17.4993 4.83823 17.4993 5.66665V16C17.4993 16.8284 16.8278 17.5 15.9993 17.5H4C3.17157 17.5 2.5 16.8284 2.5 16V5.6665C2.5 4.83807 3.17158 4.16649 4.00002 4.1665L5.83333 4.16653V2.33317C5.83333 1.96498 6.13181 1.6665 6.5 1.6665ZM4 5.49984C3.90795 5.49984 3.83333 5.57446 3.83333 5.6665V7.66667H16.166V5.66665C16.166 5.5746 16.0914 5.49998 15.9994 5.49998L4 5.49984ZM3.83333 16V9H16.166V16C16.166 16.092 16.0914 16.1667 15.9993 16.1667H4C3.90795 16.1667 3.83333 16.092 3.83333 16ZM6.33464 11.6665C5.8744 11.6665 5.5013 12.0396 5.5013 12.4998C5.5013 12.9601 5.8744 13.3332 6.33464 13.3332C6.79487 13.3332 7.16797 12.9601 7.16797 12.4998C7.16797 12.0396 6.79487 11.6665 6.33464 11.6665ZM10 11.6665C9.53976 11.6665 9.16667 12.0396 9.16667 12.4998C9.16667 12.9601 9.53976 13.3332 10 13.3332C10.4602 13.3332 10.8333 12.9601 10.8333 12.4998C10.8333 12.0396 10.4602 11.6665 10 11.6665ZM12.8353 12.4998C12.8353 12.0396 13.2084 11.6665 13.6686 11.6665C14.1289 11.6665 14.502 12.0396 14.502 12.4998C14.502 12.9601 14.1289 13.3332 13.6686 13.3332C13.2084 13.3332 12.8353 12.9601 12.8353 12.4998Z" fill="#33363D"/>
</svg>
