<svg width="40" height="40" viewBox="0 0 40 40" fill="none" xmlns="http://www.w3.org/2000/svg">
<path fill-rule="evenodd" clip-rule="evenodd" d="M12.8571 4.28613H7.85714C7.09937 4.28613 6.37266 4.58716 5.83683 5.12296C5.30103 5.65879 5 6.3855 5 7.14328V35.7147C5 36.4724 5.30103 37.1993 5.83683 37.735C6.37266 38.2707 7.09937 38.5718 7.85714 38.5718H32.1429C32.9006 38.5718 33.6274 38.2707 34.1631 37.735C34.6989 37.1993 35 36.4724 35 35.7147V7.14328C35 6.3855 34.6989 5.65879 34.1631 5.12296C33.6274 4.58716 32.9006 4.28613 32.1429 4.28613H27.1429V5.7147C27.1429 7.29265 25.8637 8.57185 24.2857 8.57185H15.7143C14.1363 8.57185 12.8571 7.29265 12.8571 5.7147V4.28613Z" fill="#D3E1FB"/>
<path d="M27.8571 4.28613H32.1429C32.9006 4.28613 33.6274 4.58716 34.1631 5.12296C34.6989 5.65879 35 6.3855 35 7.14328V35.7147C35 36.4724 34.6989 37.1993 34.1631 37.735C33.6274 38.2707 32.9006 38.5718 32.1429 38.5718H7.85714C7.09937 38.5718 6.37266 38.2707 5.83683 37.735C5.30103 37.1993 5 36.4724 5 35.7147V7.14328C5 6.3855 5.30103 5.65879 5.83683 5.12296C6.37266 4.58716 7.09937 4.28613 7.85714 4.28613H12.1429" stroke="#246BEB" stroke-width="2" stroke-linecap="round" stroke-linejoin="round"/>
<path d="M24.2855 1.42871H15.7141C14.1361 1.42871 12.8569 2.7079 12.8569 4.28585V5.71443C12.8569 7.29237 14.1361 8.57157 15.7141 8.57157H24.2855C25.8634 8.57157 27.1426 7.29237 27.1426 5.71443V4.28585C27.1426 2.7079 25.8634 1.42871 24.2855 1.42871Z" fill="white"/>
<path d="M24.2855 1.42871H15.7141C14.1361 1.42871 12.8569 2.7079 12.8569 4.28585V5.71443C12.8569 7.29237 14.1361 8.57157 15.7141 8.57157H24.2855C25.8634 8.57157 27.1426 7.29237 27.1426 5.71443V4.28585C27.1426 2.7079 25.8634 1.42871 24.2855 1.42871Z" stroke="#246BEB" stroke-width="2" stroke-linecap="round" stroke-linejoin="round"/>
<path d="M14.2856 25.714L18.5714 28.5711L27.1428 17.1426" stroke="#246BEB" stroke-width="2" stroke-linecap="round" stroke-linejoin="round"/>
</svg>
