<svg width="40" height="40" viewBox="0 0 40 40" fill="none" xmlns="http://www.w3.org/2000/svg">
<g clip-path="url(#clip0_679_73671)">
<path d="M27.1827 14.3747C27.1986 12.0797 26.5998 9.82231 25.4487 7.83685C24.2975 5.85142 22.6359 4.21031 20.6364 3.08388C18.6368 1.95745 16.3722 1.38678 14.0776 1.43111C11.783 1.47544 9.54207 2.13315 7.5875 3.33597C5.63293 4.53877 4.03593 6.24285 2.96233 8.27125C1.88871 10.2997 1.37761 12.5785 1.48208 14.8711C1.58655 17.1638 2.30279 19.3867 3.55644 21.309C4.81007 23.2314 6.55544 24.7831 8.6113 25.8032V30.089C8.6113 30.4679 8.76181 30.8313 9.02973 31.099C9.29764 31.367 9.66098 31.5176 10.0399 31.5176H18.6113C18.9902 31.5176 19.3536 31.367 19.6215 31.099C19.8894 30.8313 20.0399 30.4679 20.0399 30.089V25.8032C22.1755 24.751 23.9754 23.124 25.2372 21.1051C26.499 19.0862 27.1728 16.7554 27.1827 14.3747Z" fill="#D3E1FB"/>
<path d="M23.9962 22.7723C22.8932 24.0271 21.5505 25.0589 20.0399 25.8032V30.089C20.0399 30.4679 19.8894 30.8313 19.6215 31.099C19.3536 31.367 18.9902 31.5176 18.6113 31.5176H10.0399C9.66098 31.5176 9.29764 31.367 9.02973 31.099C8.76181 30.8313 8.6113 30.4679 8.6113 30.089V25.8032C6.55544 24.7831 4.81007 23.2314 3.55644 21.309C2.30279 19.3867 1.58655 17.1638 1.48208 14.8711C1.37761 12.5785 1.88871 10.2997 2.96233 8.27125C4.03593 6.24285 5.63293 4.53877 7.5875 3.33597C9.54207 2.13315 11.783 1.47544 14.0776 1.43111C15.9919 1.39413 17.8854 1.7852 19.6215 2.56991" stroke="#246BEB" stroke-width="2" stroke-linecap="round" stroke-linejoin="round"/>
<path d="M8.61133 38.5713H20.0399" stroke="#246BEB" stroke-width="2" stroke-linecap="round" stroke-linejoin="round"/>
<path d="M21.1485 12.6912C20.1458 12.5167 20.1458 11.0774 21.1485 10.9029C24.7809 10.271 27.67 7.50424 28.4585 3.90252L28.5189 3.62644C28.7358 2.63548 30.1467 2.62931 30.3724 3.61832L30.4458 3.94006C31.2632 7.52481 34.1532 10.2682 37.7755 10.8984C38.7835 11.0737 38.7835 12.5204 37.7755 12.6957C34.1532 13.3259 31.2632 16.0693 30.4458 19.654L30.3724 19.9758C30.1467 20.9648 28.7358 20.9586 28.5189 19.9677L28.4585 19.6916C27.67 16.0899 24.7809 13.3231 21.1485 12.6912Z" fill="white"/>
<path d="M21.1485 12.6912C20.1458 12.5167 20.1458 11.0774 21.1485 10.9029C24.7809 10.271 27.67 7.50424 28.4585 3.90252L28.5189 3.62644C28.7358 2.63548 30.1467 2.62931 30.3724 3.61832L30.4458 3.94006C31.2632 7.52481 34.1533 10.2682 37.7755 10.8984C38.7835 11.0737 38.7835 12.5204 37.7755 12.6957C34.1533 13.3259 31.2632 16.0693 30.4458 19.654L30.3724 19.9758C30.1467 20.9648 28.7358 20.9586 28.5189 19.9677L28.4585 19.6916C27.67 16.0899 24.7809 13.3231 21.1485 12.6912Z" stroke="#246BEB" stroke-width="2" stroke-linecap="round" stroke-linejoin="round"/>
</g>
<defs>
<clipPath id="clip0_679_73671">
<rect width="40" height="40" fill="white"/>
</clipPath>
</defs>
</svg>
