<svg width="40" height="40" viewBox="0 0 40 40" fill="none" xmlns="http://www.w3.org/2000/svg">
<path d="M32.8586 38.5714V30H8.57038C6.20347 30 4.28467 31.9189 4.28467 34.2857C4.28467 36.6526 6.20347 38.5714 8.57038 38.5714H32.8586Z" fill="white"/>
<path d="M5.54188 31.2553C4.73814 32.059 4.28662 33.1493 4.28662 34.2859V5.60014C4.31639 4.48343 4.78105 3.42248 5.58156 2.6433C6.38208 1.86412 7.45522 1.42831 8.57234 1.42871H32.8581C33.6158 1.42871 34.3424 1.72973 34.8784 2.26555C35.4141 2.80137 35.7153 3.52808 35.7153 4.28585V27.143C35.7153 27.9008 35.4141 28.6276 34.8784 29.1633C34.3424 29.699 33.6158 30.0001 32.8581 30.0001H8.57234C7.43568 30.0001 6.34559 30.4516 5.54188 31.2553Z" fill="#D3E1FB"/>
<path d="M5.54188 31.2553C4.73814 32.059 4.28662 33.1493 4.28662 34.2859V5.60014C4.31639 4.48343 4.78105 3.42248 5.58156 2.6433C6.38208 1.86412 7.45522 1.42831 8.57234 1.42871H32.8581C33.6158 1.42871 34.3424 1.72973 34.8784 2.26555C35.4141 2.80137 35.7153 3.52808 35.7153 4.28585V27.143C35.7153 27.9008 35.4141 28.6276 34.8784 29.1633C34.3424 29.699 33.6158 30.0001 32.8581 30.0001H8.57234C7.43568 30.0001 6.34559 30.4516 5.54188 31.2553Z" stroke="#246BEB" stroke-width="2" stroke-linecap="round" stroke-linejoin="round"/>
<path d="M35.7153 38.5718H8.57234C7.43568 38.5718 6.34559 38.1204 5.54188 37.3167C4.73814 36.513 4.28662 35.4227 4.28662 34.2861" stroke="#246BEB" stroke-width="2" stroke-linecap="round" stroke-linejoin="round"/>
<path d="M32.8584 30V38.5714" stroke="#246BEB" stroke-width="2" stroke-linecap="round" stroke-linejoin="round"/>
<path d="M23.0052 14.291H29.6197L22.5918 24.2127H30.0331" stroke="#246BEB" stroke-width="2" stroke-linecap="round" stroke-linejoin="round"/>
<path d="M10.0347 17.1014L13.0804 7.96406C13.2366 7.49563 13.675 7.17969 14.1687 7.17969C14.6625 7.17969 15.1008 7.49563 15.257 7.96406L18.3028 17.1014M11.1371 13.7941H17.2004" stroke="#246BEB" stroke-width="2" stroke-linecap="round" stroke-linejoin="round"/>
</svg>
