<svg width="106" height="94" viewBox="0 0 106 94" fill="none" xmlns="http://www.w3.org/2000/svg">
<path d="M56 5.00194C60.6179 7.66763 64.6112 11.2916 67.7112 15.6299C70.8111 19.9682 72.9458 24.9202 73.9716 30.1526C74.9974 35.3851 74.8905 40.7765 73.6581 45.9642C72.4256 51.1518 70.0962 56.0153 66.8267 60.2273L91.966 85.3666C92.8161 86.2467 93.2865 87.4256 93.2758 88.6491C93.2652 89.8727 92.7744 91.0432 91.9092 91.9084C91.0439 92.7737 89.8735 93.2645 88.6499 93.2751C87.4263 93.2857 86.2475 92.8154 85.3673 91.9653L60.2233 66.8259C54.7048 71.109 48.0952 73.7578 41.1461 74.4713C34.1969 75.1847 27.187 73.9341 20.9133 70.8616C14.6396 67.7892 9.35378 63.0182 5.65677 57.091C1.95976 51.1638 -9.84408e-05 44.3183 3.70849e-09 37.3326L0.0233339 36.0026C0.252905 29.5661 2.14372 23.2985 5.51201 17.8088C8.8803 12.3192 13.6115 7.79434 19.2458 4.67401C24.88 1.55368 31.2257 -0.0559763 37.666 0.00148627C44.1064 0.0589488 50.4223 1.78158 56 5.00194ZM31.2993 24.6953C30.8658 24.262 30.3511 23.9184 29.7847 23.684C29.2183 23.4496 28.6113 23.3291 27.9984 23.3293C26.7604 23.3298 25.5734 23.822 24.6983 24.6976C24.2651 25.1312 23.9214 25.6459 23.6871 26.2122C23.4527 26.7786 23.3322 27.3856 23.3324 27.9986C23.3328 29.2365 23.825 30.4236 24.7007 31.2986L30.73 37.3326L24.7007 43.3666C23.8506 44.2468 23.3802 45.4256 23.3909 46.6491C23.4015 47.8727 23.8923 49.0432 24.7575 49.9084C25.6228 50.7737 26.7932 51.2645 28.0168 51.2751C29.2404 51.2857 30.4192 50.8153 31.2993 49.9653L37.3333 43.9359L43.3673 49.9653C44.2475 50.8153 45.4263 51.2857 46.6499 51.2751C47.8735 51.2645 49.0439 50.7737 49.9092 49.9084C50.7744 49.0432 51.2652 47.8727 51.2758 46.6491C51.2864 45.4256 50.8161 44.2468 49.966 43.3666L43.9367 37.3326L49.966 31.2986C50.4117 30.8681 50.7672 30.3532 51.0118 29.7838C51.2564 29.2145 51.3851 28.6021 51.3905 27.9825C51.3959 27.3628 51.2778 26.7483 51.0432 26.1748C50.8085 25.6013 50.462 25.0803 50.0238 24.6421C49.5857 24.2039 49.0646 23.8574 48.4911 23.6228C47.9176 23.3881 47.3031 23.2701 46.6835 23.2754C46.0638 23.2808 45.4515 23.4096 44.8821 23.6541C44.3128 23.8987 43.7978 24.2542 43.3673 24.6999L37.3333 30.7293L31.2993 24.6953Z" fill="#C6C6C6"/>
</svg>
