<svg width="20" height="20" viewBox="0 0 20 20" fill="none" xmlns="http://www.w3.org/2000/svg">
<path d="M4 6.7002H16C16.718 6.7002 17.2998 7.28203 17.2998 8V15.2998H2.7002V8C2.7002 7.28203 3.28203 6.7002 4 6.7002Z" stroke="#2D2D2D" stroke-width="1.4"/>
<path d="M4 6.7002H16C16.718 6.7002 17.2998 7.28203 17.2998 8V15.2998H2.7002V8C2.7002 7.28203 3.28203 6.7002 4 6.7002Z" stroke="black" stroke-opacity="0.2" stroke-width="1.4"/>
<path d="M4 6.7002H16C16.718 6.7002 17.2998 7.28203 17.2998 8V15.2998H2.7002V8C2.7002 7.28203 3.28203 6.7002 4 6.7002Z" stroke="black" stroke-opacity="0.2" stroke-width="1.4"/>
<rect x="5.7" y="11.7" width="8.6" height="5.6" fill="white"/>
<rect x="5.7" y="11.7" width="8.6" height="5.6" stroke="#2D2D2D" stroke-width="1.4"/>
<rect x="5.7" y="11.7" width="8.6" height="5.6" stroke="black" stroke-opacity="0.2" stroke-width="1.4"/>
<rect x="5.7" y="11.7" width="8.6" height="5.6" stroke="black" stroke-opacity="0.2" stroke-width="1.4"/>
<rect x="5.7" y="2.7" width="8.6" height="4" fill="white"/>
<rect x="5.7" y="2.7" width="8.6" height="4" stroke="#2D2D2D" stroke-width="1.4"/>
<rect x="5.7" y="2.7" width="8.6" height="4" stroke="black" stroke-opacity="0.2" stroke-width="1.4"/>
<rect x="5.7" y="2.7" width="8.6" height="4" stroke="black" stroke-opacity="0.2" stroke-width="1.4"/>
</svg>
