<svg width="20" height="20" viewBox="0 0 20 20" fill="none" xmlns="http://www.w3.org/2000/svg">
<path d="M9.08203 2C12.994 2 16.165 5.17197 16.165 9.08398C16.165 10.7992 15.5545 12.3711 14.54 13.5967L17.3047 16.3623C17.565 16.6227 17.565 17.0443 17.3047 17.3047C17.0443 17.5648 16.6226 17.565 16.3623 17.3047L13.5977 14.54C12.3717 15.5558 10.7985 16.167 9.08203 16.167C5.17012 16.167 1.9992 12.9959 1.99902 9.08398C1.99902 5.17197 5.17001 2 9.08203 2ZM9.08203 3.33398C5.90639 3.33398 3.33203 5.90835 3.33203 9.08398C3.33221 12.2595 5.9065 14.834 9.08203 14.834C10.5987 14.834 11.9765 14.2446 13.0039 13.2852C13.0345 13.2266 13.0728 13.1703 13.1221 13.1211C13.1713 13.0719 13.2275 13.0345 13.2861 13.0039C14.2443 11.9768 14.8319 10.5995 14.832 9.08398C14.832 5.90835 12.2577 3.33398 9.08203 3.33398Z" fill="#33363D"/>
</svg>
