<svg width="100" height="100" viewBox="0 0 100 100" fill="none" xmlns="http://www.w3.org/2000/svg">
<g clip-path="url(#clip0_212_27477)">
<path fill-rule="evenodd" clip-rule="evenodd" d="M40.2506 75.5496C40.4978 74.8567 40.9529 74.2571 41.5538 73.8326C42.1547 73.4081 42.872 73.1796 43.6077 73.1782H56.3934C57.1291 73.1796 57.8464 73.4081 58.4473 73.8326C59.0482 74.2571 59.5034 74.8567 59.7506 75.5496L64.6577 89.2497H71.4291C72.8499 89.2497 74.2125 89.8141 75.2172 90.8187C76.2219 91.8234 76.7863 93.186 76.7863 94.6068C76.7863 96.0276 76.2219 97.3902 75.2172 98.3949C74.2125 99.3995 72.8499 99.9639 71.4291 99.9639H28.572C27.1512 99.9639 25.7886 99.3995 24.7839 98.3949C23.7793 97.3902 23.2148 96.0276 23.2148 94.6068C23.2148 93.186 23.7793 91.8234 24.7839 90.8187C25.7886 89.8141 27.1512 89.2497 28.572 89.2497H35.3434L40.2434 75.5496H40.2506Z" fill="#C6C6C6"/>
<path fill-rule="evenodd" clip-rule="evenodd" d="M98.4291 9.1427C99.3754 8.12716 99.8906 6.78397 99.8661 5.39611C99.8416 4.00824 99.2794 2.68406 98.2978 1.70254C97.3163 0.721022 95.9921 0.158793 94.6043 0.134306C93.2164 0.109819 91.8732 0.624985 90.8577 1.57127L78.572 13.857L66.2863 1.57127C65.7958 1.04494 65.2044 0.622777 64.5472 0.329977C63.8901 0.0371776 63.1807 -0.120264 62.4614 -0.132955C61.7421 -0.145647 61.0276 -0.0133276 60.3606 0.256108C59.6935 0.525544 59.0875 0.926577 58.5788 1.43528C58.0701 1.94399 57.6691 2.54994 57.3997 3.217C57.1302 3.88406 56.9979 4.59855 57.0106 5.31786C57.0233 6.03717 57.1807 6.74655 57.4735 7.40369C57.7663 8.06082 58.1885 8.65226 58.7148 9.1427L71.0005 21.4284L58.7148 33.7141C57.7685 34.7297 57.2534 36.0729 57.2779 37.4607C57.3023 38.8486 57.8646 40.1728 58.8461 41.1543C59.8276 42.1358 61.1518 42.698 62.5397 42.7225C63.9275 42.747 65.2707 42.2318 66.2863 41.2856L78.572 28.9998L90.8577 41.2856C91.3481 41.8119 91.9396 42.2341 92.5967 42.5269C93.2538 42.8197 93.9632 42.9771 94.6825 42.9898C95.4018 43.0025 96.1163 42.8702 96.7834 42.6007C97.4504 42.3313 98.0564 41.9303 98.5651 41.4215C99.0738 40.9128 99.4748 40.3069 99.7443 39.6398C100.014 38.9728 100.146 38.2583 100.133 37.539C100.121 36.8197 99.9632 36.1103 99.6704 35.4531C99.3776 34.796 98.9554 34.2046 98.4291 33.7141L86.1434 21.4284L98.4291 9.1427Z" fill="#E71825"/>
<path fill-rule="evenodd" clip-rule="evenodd" d="M48.3286 3.57129H10.4C4.66429 3.57129 0 8.22843 0 13.9784V68.1641C0 73.9141 4.65714 78.5713 10.4071 78.5713H89.5929C95.3429 78.5713 100 73.9141 100 68.1641V50.7499C97.3996 51.8014 94.5471 52.064 91.7983 51.5051C89.0496 50.9462 86.5262 49.5905 84.5429 47.607L78.5714 41.6213L72.6 47.5927C71.2822 48.9571 69.7058 50.0455 67.9629 50.7942C66.22 51.5429 64.3454 51.937 62.4486 51.9534C60.5517 51.9699 58.6706 51.6085 56.9149 50.8902C55.1593 50.1719 53.5643 49.1111 52.2229 47.7698C50.8816 46.4285 49.8208 44.8334 49.1025 43.0778C48.3843 41.3221 48.0228 39.441 48.0393 37.5441C48.0558 35.6473 48.4499 33.7727 49.1986 32.0298C49.9473 30.2869 51.0356 28.7105 52.4 27.3927L58.3714 21.4284L52.4 15.457C50.8591 13.9181 49.691 12.0468 48.9852 9.98654C48.2795 7.92629 48.0549 5.7318 48.3286 3.57129Z" fill="#E4E4E4"/>
</g>
<defs>
<clipPath id="clip0_212_27477">
<rect width="100" height="100" fill="white"/>
</clipPath>
</defs>
</svg>
