<svg width="112" height="100" viewBox="0 0 112 100" fill="none" xmlns="http://www.w3.org/2000/svg">
<path fill-rule="evenodd" clip-rule="evenodd" d="M47.7143 42.8571C53.3975 42.8571 58.8479 40.5995 62.8665 36.5808C66.8852 32.5622 69.1428 27.1118 69.1428 21.4286C69.1428 15.7454 66.8852 10.2949 62.8665 6.27628C58.8479 2.25765 53.3975 0 47.7143 0C42.0311 0 36.5806 2.25765 32.562 6.27628C28.5434 10.2949 26.2857 15.7454 26.2857 21.4286C26.2857 27.1118 28.5434 32.5622 32.562 36.5808C36.5806 40.5995 42.0311 42.8571 47.7143 42.8571ZM15.5714 89.2857H55.2143C53.9392 86.4163 53.645 83.2067 54.3771 80.1533C55.1093 77.0999 56.8271 74.3728 59.2648 72.3937C61.7025 70.4146 64.7243 69.2938 67.863 69.2045C71.0017 69.1153 74.0823 70.0626 76.6285 71.9L80.9142 74.7928L81.4642 74C78.6859 66.0336 73.1781 59.3075 65.9161 55.0127C58.6542 50.7179 50.1067 49.1315 41.7872 50.5345C33.4678 51.9374 25.9132 56.2392 20.4614 62.6781C15.0095 69.1169 12.0121 77.2773 12 85.7142C12 86.6614 12.3763 87.5698 13.046 88.2396C13.7158 88.9094 14.6242 89.2857 15.5714 89.2857Z" fill="#C6C6C6"/>
<path fill-rule="evenodd" clip-rule="evenodd" d="M109.856 58.2145C110.419 58.6366 110.893 59.1654 111.252 59.7708C111.61 60.3762 111.846 61.0462 111.945 61.7426C112.045 62.4391 112.006 63.1483 111.832 63.8298C111.657 64.5113 111.35 65.1517 110.928 65.7145L88.642 97.8574C88.2199 98.4202 87.6911 98.8943 87.0857 99.2528C86.4804 99.6112 85.8103 99.8469 85.1139 99.9464C84.4175 100.046 83.7083 100.007 83.0268 99.8326C82.3453 99.658 81.7048 99.3509 81.142 98.9288L65.0706 87.7859C64.5078 87.3638 64.0336 86.835 63.6752 86.2296C63.3168 85.6243 63.0811 84.9543 62.9816 84.2578C62.8821 83.5614 62.9207 82.8522 63.0953 82.1707C63.2699 81.4892 63.5771 80.8487 63.9992 80.2859C64.4213 79.7231 64.9501 79.249 65.5554 78.8905C66.1608 78.5321 66.8308 78.2964 67.5273 78.1969C68.2237 78.0974 68.9329 78.1361 69.6144 78.3107C70.2959 78.4853 70.9363 78.7924 71.4992 79.2145L83.2849 87.1431L102.356 59.2859C103.209 58.1493 104.478 57.3979 105.884 57.1969C107.291 56.996 108.72 57.362 109.856 58.2145Z" fill="#246BEB"/>
</svg>
