<svg width="224" height="24" viewBox="0 0 224 24" fill="none" xmlns="http://www.w3.org/2000/svg">
<g clip-path="url(#clip0_925_6819)">
<path d="M53.5208 16.242C51.5392 18.1329 49.191 18.5212 46.2753 18.5212H21.3001C19.3097 18.5212 17.5464 16.968 16.7258 14.7815H10.2397C11.4182 20.0577 15.9314 24 21.3088 24H46.284C49.8369 24 54.3938 23.5357 58.1824 19.9395L62.2678 16.0478L57.9991 11.9873C55.5635 14.3088 53.5295 16.242 53.5295 16.242H53.5208Z" fill="#ED1B2F"/>
<path d="M21.3001 5.55454H37.5807C38.2965 5.55454 39.0996 6.32275 39.0996 7.42018C39.0996 8.51761 38.2965 9.29426 37.5807 9.29426H16.7258C16.4115 10.13 16.2282 11.067 16.2282 12.0378C16.2282 13.0086 16.4115 13.9372 16.7258 14.7814H37.5807C41.8931 14.7814 45.4023 11.4807 45.4023 7.42862C45.4023 3.37656 41.8931 0.0673828 37.5807 0.0673828H21.3001C15.9314 0.0673828 11.4182 4.0097 10.2397 9.29426H16.7258C17.5464 7.10783 19.3097 5.55454 21.3001 5.55454Z" fill="#ED1B2F"/>
<path d="M16.2281 12.0297C16.2281 11.0589 16.4114 10.1303 16.7257 9.28613H10.2396C10.0388 10.1641 9.93408 11.0842 9.93408 12.0297C9.93408 12.9752 10.0388 13.8869 10.2396 14.7733H16.7257C16.4114 13.9291 16.2281 13.0005 16.2281 12.0297Z" fill="#7F2629"/>
<path d="M10.2397 9.29395H3.15136C1.41419 9.29395 0 10.518 0 12.0375C0 13.557 1.41419 14.7811 3.15136 14.7811H10.2397C10.039 13.8947 9.93422 12.983 9.93422 12.0375C9.93422 11.092 10.039 10.1803 10.2397 9.29395Z" fill="#ED1B2F"/>
<path d="M70.8927 7.82601C72.8743 5.93505 75.2226 5.54673 78.1383 5.54673H80.2159C81.9531 5.54673 83.3672 4.32267 83.3672 2.80315C83.3672 1.28363 81.9531 0.0595703 80.2159 0.0595703H78.1383C74.5853 0.0595703 70.0198 0.523868 66.2399 4.12007C66.2399 4.12007 64.4678 5.79999 62.2505 7.91887L66.5192 11.9794L70.884 7.82601H70.8927Z" fill="#ED1B2F"/>
<path d="M57.7635 3.65546C55.9652 1.94177 53.7217 0.633297 51.2338 0.152115C49.5403 -0.177115 47.8206 0.59953 47.3579 2.05996C46.8952 3.52039 47.8729 5.03147 49.549 5.43667C50.9632 5.77434 52.098 6.39059 53.1107 7.35296L57.9905 11.9875C59.3785 10.6621 60.9062 9.21859 62.2592 7.927L57.7635 3.65546Z" fill="#0071CE"/>
<path d="M80.2596 18.4706H78.182C75.2663 18.4706 72.918 18.0823 70.9364 16.1913L66.528 11.9873L62.2593 16.0478L66.2836 19.8888C70.0635 23.485 74.629 23.9493 78.1732 23.9493H80.2509C81.988 23.9493 83.4022 22.7253 83.4022 21.2057C83.4022 19.6862 81.988 18.4622 80.2509 18.4622L80.2596 18.4706Z" fill="#0071CE"/>
<path d="M62.259 7.92676C60.9059 9.21835 59.3782 10.6619 57.9902 11.9873L62.259 16.0478L66.5277 11.9873L62.259 7.92676Z" fill="#0A1F8F"/>
<path d="M221.311 0.776367H218.073V23.0205H221.311V9.7331H224V7.58045H221.311V0.776367Z" fill="#0A1F8F"/>
<path d="M211.264 5.55488V0.954102H208.034V5.54643C208.034 9.30303 206.48 12.418 202.866 14.6045L204.289 16.3772C206.689 15.1616 208.479 13.3213 209.657 11.3206C210.827 13.3129 212.625 15.1532 215.017 16.3772L216.44 14.6045C212.817 12.418 211.264 9.30303 211.264 5.54643V5.55488Z" fill="#0A1F8F"/>
<path d="M114.121 6.60964V0.776367H110.891V16.9762H114.121V8.7623H116.81V6.60964H114.121Z" fill="#0A1F8F"/>
<path d="M108.019 8.18853C108.019 6.49173 107.19 5.06507 105.898 4.13648H108.159V1.97538H103.637V0H100.398V1.96694H95.8765V4.12803H98.216C96.924 5.06507 96.0947 6.48329 96.0947 8.18009C96.0947 11.236 98.7659 13.7179 102.057 13.7179C105.348 13.7179 108.019 11.236 108.019 8.18009V8.18853ZM99.3334 8.18853C99.3334 6.28913 100.555 4.74428 102.057 4.74428C103.558 4.74428 104.781 6.28069 104.781 8.18853C104.781 10.0964 103.558 11.6328 102.057 11.6328C100.555 11.6328 99.3334 10.0879 99.3334 8.18853Z" fill="#0A1F8F"/>
<path d="M114.296 22.9537V20.7926H102.179V15.9639H98.9492V21.1134C98.9492 22.0673 99.7261 22.9537 100.983 22.9537H114.304H114.296Z" fill="#0A1F8F"/>
<path d="M142.353 1.07227V10.8647C142.353 11.8187 143.13 12.7135 144.387 12.7135H148.542V19.2221H141.166V21.3832H159.157V19.2221H151.781V12.7135H157.603V10.5524H145.591V3.23336H157.603V1.07227H142.353Z" fill="#0A1F8F"/>
<path d="M129.834 14.6551V10.9238H137.551V8.76273H135.928V2.92102C135.928 1.9671 135.142 1.07227 133.894 1.07227H120.014V3.23336H132.689V8.76273H118.879V10.9238H126.596V14.6551H120.014V16.8162H132.689V23.0209H135.928V14.6551H129.834Z" fill="#0A1F8F"/>
<path d="M163.164 12.1817C163.164 13.1356 163.941 14.0304 165.198 14.0304H169.528V19.2221H161.977V21.3832H180.309V19.2221H172.758V14.0304H178.755V11.8693H166.394V8.77962H178.755V2.92102C178.755 1.9671 177.978 1.07227 176.721 1.07227H163.164V3.23336H175.516V6.61852H163.164V12.1817Z" fill="#0A1F8F"/>
<path d="M184.185 1.07227V3.23336H196.694V10.3245H192.181V6.12045H188.942V10.3245H182.535V12.4856H201.888V10.3245H199.924V2.92102C199.924 1.9671 199.138 1.07227 197.89 1.07227H184.185Z" fill="#0A1F8F"/>
<path d="M192.111 13.6592C188.287 13.6592 185.188 15.9553 185.188 18.7918C185.188 21.6282 188.287 23.9244 192.111 23.9244C195.935 23.9244 199.034 21.6282 199.034 18.7918C199.034 15.9553 195.935 13.6592 192.111 13.6592ZM192.111 21.8224C190.068 21.8224 188.418 20.4633 188.418 18.7918C188.418 17.1203 190.068 15.7612 192.111 15.7612C194.154 15.7612 195.804 17.1203 195.804 18.7918C195.804 20.4633 194.154 21.8224 192.111 21.8224Z" fill="#0A1F8F"/>
</g>
<defs>
<clipPath id="clip0_925_6819">
<rect width="224" height="24" fill="white"/>
</clipPath>
</defs>
</svg>
