<svg width="109" height="109" viewBox="0 0 109 109" fill="none" xmlns="http://www.w3.org/2000/svg">
<path d="M7 89.6897V77.3793H31.6207V102H7V89.6897ZM28.1034 89.6897V80.8966H10.5172V98.4828H28.1034V89.6897ZM14.0345 89.6897V84.4138H24.5862V94.9655H14.0345V89.6897ZM38.6552 100.241V98.4828H35.1379V91.4483H38.6552V80.8966H42.1724V77.3793H35.1379V73.8621H21.069V70.3448H24.5862V66.8276H17.5517V73.8621H14.0345V70.3448H7V66.8276H14.0345V59.7931H10.5172V63.3103H7V56.2759H14.0345V59.7931H17.5517V63.3103H21.069V59.7931H24.5862V63.3103H31.6207V59.7931H28.1034V56.2759H17.5517V52.7586H28.1034V49.2414H17.5517V45.7241H14.0345V49.2414H7V38.6897H10.5172V42.2069H31.6207V38.6897H28.1034V35.1724H21.069V38.6897H17.5517V35.1724H10.5172V28.1379H17.5517V35.1724H21.069V31.6552H28.1034V28.1379H31.6207V31.6552H28.1034V35.1724H31.6207V38.6897H35.1379V31.6552H38.6552V28.1379H35.1379V17.5862H42.1724V21.1034H45.6897V24.6207H42.1724V28.1379H45.6897V49.2414H38.6552V45.7241H35.1379V49.2414H31.6207V52.7586H28.1034V56.2759H31.6207V59.7931H35.1379V63.3103H42.1724V59.7931H38.6552V56.2759H35.1379V52.7586H42.1724V59.7931H45.6897V52.7586H49.2069V59.7931H52.7241V49.2414H56.2414V45.7241H59.7586V49.2414H56.2414V52.7586H59.7586V56.2759H70.3103V52.7586H66.7931V49.2414H63.2759V42.2069H59.7586V38.6897H63.2759V35.1724H66.7931V31.6552H63.2759V28.1379H59.7586V35.1724H56.2414V31.6552H52.7241V35.1724H49.2069V31.6552H52.7241V28.1379H49.2069V17.5862H45.6897V14.069H49.2069V17.5862H52.7241V3.51724H56.2414V10.5517H63.2759V7.03448H59.7586V0H66.7931V3.51724H63.2759V7.03448H70.3103V3.51724H73.8276V0H80.8621V10.5517H73.8276V7.03448H70.3103V14.069H73.8276V24.6207H77.3448V21.1034H80.8621V38.6897H87.8966V35.1724H84.3793V28.1379H91.4138V38.6897H98.4483V35.1724H94.931V28.1379H98.4483V35.1724H101.966V31.6552H109V38.6897H105.483V35.1724H101.966V38.6897H98.4483V49.2414H101.966V52.7586H98.4483V56.2759H91.4138V59.7931H87.8966V63.3103H80.8621V59.7931H77.3448V56.2759H73.8276V63.3103H77.3448V66.8276H87.8966V70.3448H94.931V66.8276H91.4138V63.3103H94.931V59.7931H98.4483V63.3103H101.966V66.8276H105.483V59.7931H101.966V56.2759H109V66.8276H105.483V73.8621H109V80.8966H105.483V91.4483H109V94.9655H98.4483V102H87.8966V98.4828H94.931V94.9655H87.8966V87.931H84.3793V94.9655H80.8621V98.4828H84.3793V102H77.3448V91.4483H73.8276V98.4828H70.3103V94.9655H66.7931V80.8966H70.3103V91.4483H73.8276V80.8966H77.3448V73.8621H73.8276V70.3448H70.3103V66.8276H73.8276V63.3103H70.3103V59.7931H66.7931V73.8621H70.3103V77.3793H63.2759V84.4138H59.7586V91.4483H63.2759V94.9655H59.7586V98.4828H66.7931V102H59.7586V98.4828H56.2414V94.9655H52.7241V102H38.6552V100.241ZM49.2069 94.9655V91.4483H52.7241V80.8966H45.6897V84.4138H49.2069V87.931H42.1724V91.4483H38.6552V94.9655H42.1724V98.4828H49.2069V94.9655ZM98.4483 91.4483V87.931H101.966V80.8966H105.483V77.3793H101.966V66.8276H98.4483V77.3793H101.966V80.8966H98.4483V84.4138H94.931V94.9655H98.4483V91.4483ZM80.8621 89.6897V87.931H77.3448V91.4483H80.8621V89.6897ZM59.7586 82.6552V80.8966H56.2414V84.4138H59.7586V82.6552ZM91.4138 79.1379V73.8621H80.8621V84.4138H91.4138V79.1379ZM84.3793 79.1379V77.3793H87.8966V80.8966H84.3793V79.1379ZM56.2414 75.6207V73.8621H63.2759V70.3448H56.2414V66.8276H52.7241V70.3448H56.2414V73.8621H49.2069V70.3448H45.6897V73.8621H42.1724V70.3448H38.6552V66.8276H35.1379V63.3103H31.6207V66.8276H28.1034V70.3448H31.6207V66.8276H35.1379V70.3448H38.6552V73.8621H42.1724V77.3793H56.2414V75.6207ZM45.6897 65.069V63.3103H42.1724V66.8276H45.6897V65.069ZM63.2759 63.3103V59.7931H56.2414V63.3103H59.7586V66.8276H63.2759V63.3103ZM84.3793 58.0345V56.2759H80.8621V59.7931H84.3793V58.0345ZM91.4138 54.5172V52.7586H94.931V42.2069H91.4138V45.7241H87.8966V49.2414H84.3793V45.7241H77.3448V42.2069H73.8276V38.6897H77.3448V28.1379H73.8276V24.6207H70.3103V21.1034H66.7931V24.6207H63.2759V14.069H66.7931V17.5862H70.3103V14.069H66.7931V10.5517H63.2759V14.069H59.7586V24.6207H63.2759V28.1379H66.7931V24.6207H70.3103V35.1724H66.7931V38.6897H63.2759V42.2069H66.7931V49.2414H70.3103V45.7241H77.3448V49.2414H80.8621V52.7586H87.8966V56.2759H91.4138V54.5172ZM87.8966 51V49.2414H91.4138V52.7586H87.8966V51ZM31.6207 47.4828V45.7241H35.1379V42.2069H31.6207V45.7241H28.1034V49.2414H31.6207V47.4828ZM42.1724 40.4483V38.6897H38.6552V42.2069H42.1724V40.4483ZM42.1724 22.8621V21.1034H38.6552V24.6207H42.1724V22.8621ZM56.2414 21.1034V17.5862H52.7241V24.6207H56.2414V21.1034ZM77.3448 5.27586V3.51724H73.8276V7.03448H77.3448V5.27586ZM105.483 100.241V98.4828H109V102H105.483V100.241ZM105.483 49.2414V45.7241H101.966V42.2069H105.483V45.7241H109V52.7586H105.483V49.2414ZM7 12.3103V0H31.6207V24.6207H7V12.3103ZM28.1034 12.3103V3.51724H10.5172V21.1034H28.1034V12.3103ZM14.0345 12.3103V7.03448H24.5862V17.5862H14.0345V12.3103ZM84.3793 12.3103V0H109V24.6207H84.3793V12.3103ZM105.483 12.3103V3.51724H87.8966V21.1034H105.483V12.3103ZM91.4138 12.3103V7.03448H101.966V17.5862H91.4138V12.3103ZM35.1379 12.3103V10.5517H38.6552V14.069H35.1379V12.3103ZM42.1724 8.7931V7.03448H38.6552V0H42.1724V3.51724H45.6897V0H49.2069V3.51724H45.6897V10.5517H42.1724V8.7931Z" fill="black"/>
</svg>
