<svg width="28" height="8" viewBox="0 0 28 8" fill="none" xmlns="http://www.w3.org/2000/svg">
<g clip-path="url(#clip0_130_35695)">
<path d="M17.9684 5.4068C17.3012 6.03897 16.5139 6.16785 15.535 6.16785H7.15156C6.48435 6.16785 5.8914 5.64857 5.61494 4.91762H3.43652C3.83313 6.68244 5.34728 8.00134 7.15156 8.00134H15.535C16.7278 8.00134 18.2595 7.84706 19.5285 6.64387L20.901 5.34283L19.4679 3.98535C18.6493 4.76146 17.9684 5.4068 17.9684 5.4068Z" fill="#E60021"/>
<path d="M7.15156 1.83255H12.6162C12.8574 1.83255 13.1261 2.08937 13.1261 2.4572C13.1261 2.82502 12.8574 3.08278 12.6162 3.08278H5.61494C5.50846 3.36312 5.44887 3.67356 5.44887 3.99906C5.44887 4.32455 5.50846 4.63499 5.61494 4.91533H12.6162C14.0639 4.91533 15.241 3.81279 15.241 2.45626C15.241 1.09972 14.0629 0 12.6162 0H7.15156C5.34728 0 3.83313 1.31797 3.43652 3.08372H5.61494C5.8914 2.35183 6.48436 1.83255 7.15156 1.83255Z" fill="#E60021"/>
<path d="M5.44891 4.00026C5.44891 3.67477 5.5085 3.36432 5.61497 3.08398H3.43656C3.37013 3.37843 3.33398 3.68511 3.33398 4.00026C3.33398 4.31541 3.37013 4.62208 3.43656 4.91653H5.61497C5.5085 4.6362 5.44891 4.32575 5.44891 4.00026Z" fill="#7F2629"/>
<path d="M3.43663 3.08398H1.05697C0.472805 3.08398 0 3.49414 0 4.00026C0 4.50637 0.473782 4.91653 1.05697 4.91653H3.43663C3.3702 4.62208 3.33405 4.31541 3.33405 4.00026C3.33405 3.68511 3.3702 3.37843 3.43663 3.08398Z" fill="#E60021"/>
<path d="M23.8002 2.59458C24.4665 1.96335 25.2548 1.83353 26.2336 1.83353H26.9301C27.5143 1.83353 27.9881 1.42337 27.9881 0.917251C27.9881 0.411136 27.5143 0.000976562 26.9301 0.000976562H26.2336C25.0408 0.000976562 23.5091 0.155257 22.2402 1.35846C22.2402 1.35846 21.6462 1.92195 20.9019 2.62751L22.3339 3.98592L23.8002 2.59552V2.59458Z" fill="#E60021"/>
<path d="M19.392 1.19823C18.7883 0.625322 18.0342 0.187881 17.1999 0.0270154C16.6314 -0.0830505 16.055 0.176592 15.8977 0.664833C15.7414 1.15213 16.0707 1.65731 16.6333 1.79277C17.1091 1.9066 17.4891 2.11168 17.831 2.43529L19.4682 3.98374C19.9351 3.5416 20.4461 3.05712 20.9013 2.62532L19.391 1.19823H19.392Z" fill="#0071CE"/>
<path d="M26.9418 6.15186H26.2453C25.2675 6.15186 24.4792 6.02204 23.8129 5.39081L22.3339 3.98535L20.9019 5.34283L22.2529 6.62787C23.5218 7.83107 25.0535 7.98535 26.2463 7.98535H26.9428C27.527 7.98535 27.9998 7.57519 27.9998 7.06908C27.9998 6.56296 27.526 6.1528 26.9428 6.1528L26.9418 6.15186Z" fill="#0071CE"/>
<path d="M20.9013 2.62695C20.4461 3.05781 19.9352 3.54229 19.4683 3.98537L20.9013 5.34285L22.3334 3.98537L20.9013 2.62695Z" fill="#0A1F8F"/>
</g>
<defs>
<clipPath id="clip0_130_35695">
<rect width="28" height="8" fill="white"/>
</clipPath>
</defs>
</svg>
